<svg width="32" height="32" viewBox="0 0 32 32" fill="none" xmlns="http://www.w3.org/2000/svg">
<rect width="32" height="32" fill="white"/>
<path fill-rule="evenodd" clip-rule="evenodd" d="M24 16C24 19.866 20.866 23 17 23C13.134 23 10 19.866 10 16C10 12.134 13.134 9 17 9C20.866 9 24 12.134 24 16ZM25 16C25 20.4183 21.4183 24 17 24C14.9708 24 13.118 23.2445 11.7077 21.9994L8.85355 24.8536C8.65829 25.0488 8.34171 25.0488 8.14645 24.8536C7.95118 24.6583 7.95118 24.3417 8.14645 24.1464L11.0006 21.2923C9.75551 19.882 9 18.0292 9 16C9 11.5817 12.5817 8 17 8C21.4183 8 25 11.5817 25 16Z" fill="black"/>
</svg>
